:SAMPLES-PER-SECOND 30
:FULLY-SPECIFIED
:DEGREES
281
root  34.9943146 36.48657611 -14.95504905 8.049215317 -6.607705116 4.446611881
lowerback  -6.997290134 -1.419309974 -1.169650197
upperback  -4.121829987 -1.362540007 -3.737289906
thorax  -0.3944190145 -0.5130000114 -3.288480043
lowerneck  -13.20359993 -2.530299902 -1.919340014
upperneck  17.03160095 -3.873859406 6.053410053
head  7.580689907 -1.249979973 1.921129942
lclavicle  0 -4.497500157e-015 -2.743230041e-014
lhumerus  -49.46630096 29.10790062 62.49150085
lradius  5.228657756e-007 -6.507048965e-006 31.26010132
lwrist  4.824992743e-007 -3.790274832e-007 -27.33189964
lhand  -0 -36.82770157 -10.24120045
lfingers  90 7.125020027 -90
lthumb  94.69081669 -25.08746133 100.9526103
rclavicle  0 -4.497500157e-015 -2.743230041e-014
rhumerus  -52.47310257 -26.57340431 -5.250237465
rradius  -5.16745672e-007 2.214343908e-008 99.30760193
rwrist  -0.0001064338358 0.02974390797 170.2958679
rhand  -0 3.112400055 -4.85612011
rfingers  -90 -7.125020027 -90
rthumb  -84.0442551 -10.78909429 -60.869085
rfemur  -12.752244 16.20880318 11.79966831
rtibia  -1.63958621 -1.71075201 21.79489517
rfoot  0.0585308224 -22.74472237 -34.91822815
rtoes  3.844108393 19.641957 -101.3041849
lfemur  -8.259087563 -18.12457085 -21.68626595
ltibia  2.38573885 -2.393712997 15.52733517
lfoot  1.259703636 -21.58501434 39.33895493
ltoes  -8.585376663 -18.13207512 -115.8791394
282
root  34.99018151 36.48709275 -14.95448135 8.050186157 -6.515951633 4.452794552
lowerback  -7.007959366 -1.425809979 -1.170889974
upperback  -4.121749878 -1.372779965 -3.70182991
thorax  -0.3878999949 -0.5184770226 -3.251790047
lowerneck  -13.24870014 -2.339270115 -1.791530013
upperneck  17.09840012 -3.628299475 6.012849808
head  7.596849918 -1.124679923 1.913079977
lclavicle  0 -4.497500157e-015 -2.743230041e-014
lhumerus  -49.45429993 29.0795002 62.55469894
lradius  5.228657756e-007 -6.507048965e-006 31.30529976
lwrist  4.824992743e-007 -3.790274832e-007 -27.19510078
lhand  -0 -36.79150009 -10.21730042
lfingers  90 7.125020027 -90
lthumb  94.66923336 -25.0652647 100.9120208
rclavicle  0 -4.497500157e-015 -2.743230041e-014
rhumerus  -53.03120041 -26.09019852 -6.152780533
rradius  -5.16745672e-007 2.214343908e-008 99.97149658
rwrist  -0.0001064338358 0.02974390797 170.2888641
rhand  -1.768510709e-031 3.308809996 -4.24612999
rfingers  -90 -7.125020027 -90
rthumb  -83.68830413 -11.32880751 -60.61774152
rfemur  -12.75728893 16.19538116 11.82000637
rtibia  -1.652727008 -1.680416822 21.83550453
rfoot  0.03066768497 -22.6935997 -34.98748398
rtoes  3.833994232 19.64385852 -101.2740972
lfemur  -8.213359833 -18.09918022 -21.70354652
ltibia  2.429087162 -2.34540987 15.45207977
lfoot  1.247928381 -21.64393616 39.26493835
ltoes  -8.62886698 -18.11196113 -116.0189608
283
root  34.98705766 36.48856456 -14.95414794 8.069533348 -6.455289364 4.428009033
lowerback  -7.00165987 -1.422749996 -1.195399523
upperback  -4.105559826 -1.369390011 -3.684420109
thorax  -0.3733240068 -0.5170630217 -3.219630003
lowerneck  -13.37469959 -2.175169945 -1.689030051
upperneck  17.20240021 -3.418370485 5.974180222
head  7.642059803 -1.016279936 1.905970097
lclavicle  0 -4.497500157e-015 -2.743230041e-014
lhumerus  -49.37099838 29.01659966 62.62210083
lradius  5.228657756e-007 -6.507048965e-006 31.31520081
lwrist  4.824992743e-007 -3.790274832e-007 -27.06340027
lhand  -4.404560901e-031 -36.70750046 -10.33139992
lfingers  90 7.125020027 -90
lthumb  94.65429932 -25.18017779 100.8324777
rclavicle  0 -4.497500157e-015 -2.743230041e-014
rhumerus  -53.58950043 -25.71730042 -6.996831417
rradius  -5.16745672e-007 2.214343908e-008 100.4039993
rwrist  -0.0001064338358 0.02974390797 170.0659943
rhand  -1.768824823e-031 3.480360031 -4.557779789
rfingers  -90 -7.125020027 -90
rthumb  -83.79825243 -11.06390751 -60.47926671
rfemur  -12.77811909 16.21727371 11.85191536
rtibia  -1.652608037 -1.638888478 21.84432411
rfoot  0.01925223134 -22.62127113 -35.0547905
rtoes  3.842185163 19.64231898 -101.2984634
lfemur  -8.244065285 -18.10873413 -21.65309525
ltibia  2.410284042 -2.313958406 15.47142792
lfoot  1.247360587 -21.70347404 39.24672318
ltoes  -8.583886977 -18.13276184 -115.8743527
284
root  34.98196339 36.48860661 -14.95380402 8.062503815 -6.362881184 4.415316105
lowerback  -7.019040108 -1.405099988 -1.184980273
upperback  -4.103159904 -1.347859979 -3.653779984
thorax  -0.3596259952 -0.5069019794 -3.192630053
lowerneck  -13.43220043 -2.007349968 -1.570219994
upperneck  17.23119926 -3.18666029 5.822249889
head  7.647369862 -0.9124959707 1.86056006
lclavicle  0 -4.497500157e-015 -2.743230041e-014
lhumerus  -49.29679871 28.94560051 62.73300171
lradius  5.228657756e-007 -6.507048965e-006 31.32250023
lwrist  4.824992743e-007 -3.790274832e-007 -26.91200066
lhand  -4.39971065e-031 -36.62269974 -10.45149994
lfingers  90 7.125020027 -90
lthumb  94.63993475 -25.30104937 100.7525964
rclavicle  0 -4.497500157e-015 -2.743230041e-014
rhumerus  -54.13899994 -25.35429955 -7.808088303
rradius  -5.16745672e-007 2.214343908e-008 100.8310013
rwrist  -0.0001064338358 0.02974390797 170.1150055
rhand  -1.769555065e-031 3.849570036 -4.621349812
rfingers  -90 -7.125020027 -90
rthumb  -83.73115541 -11.02335098 -60.12239063
rfemur  -12.75702286 16.21848297 11.89511776
rtibia  -1.655006886 -1.590511799 21.85759163
rfoot  0.007785009686 -22.54669952 -35.12430954
rtoes  3.853686887 19.64015137 -101.3326815
lfemur  -8.199127197 -18.10060501 -21.63768196
ltibia  2.437268257 -2.265732765 15.41583729
lfoot  1.233294725 -21.76172256 39.18221664
ltoes  -8.562800085 -18.1424666 -115.8066146
